<svg class="main-svg" xmlns="http://www.w3.org/2000/svg" xmlns:xlink="http://www.w3.org/1999/xlink" width="2200" height="266" style="" viewBox="0 0 1100 133"><rect x="0" y="0" width="1100" height="133" style="fill: rgb(255, 255, 255); fill-opacity: 1;"/><defs id="defs-482e7b"><g class="clips"><clipPath id="clip482e7bxyplot" class="plotclip"><rect width="977" height="43"/></clipPath><clipPath class="axesclip" id="clip482e7bx"><rect x="108" y="0" width="977" height="133"/></clipPath><clipPath class="axesclip" id="clip482e7by"><rect x="0" y="50" width="1100" height="43"/></clipPath><clipPath class="axesclip" id="clip482e7bxy"><rect x="108" y="50" width="977" height="43"/></clipPath></g><g class="gradients"/><g class="patterns"/></defs><g class="bglayer"/><g class="layer-below"><g class="imagelayer"/><g class="shapelayer"/></g><g class="cartesianlayer"><g class="subplot xy"><g class="layer-subplot"><g class="shapelayer"/><g class="imagelayer"/></g><g class="minor-gridlayer"><g class="x"/><g class="y"/></g><g class="gridlayer"><g class="x"><path class="xgrid crisp" transform="translate(262.47,0)" d="M0,50v43" style="stroke: rgb(0, 0, 0); stroke-opacity: 0.1; stroke-width: 1px;"/><path class="xgrid crisp" transform="translate(412.1,0)" d="M0,50v43" style="stroke: rgb(0, 0, 0); stroke-opacity: 0.1; stroke-width: 1px;"/><path class="xgrid crisp" transform="translate(561.73,0)" d="M0,50v43" style="stroke: rgb(0, 0, 0); stroke-opacity: 0.1; stroke-width: 1px;"/><path class="xgrid crisp" transform="translate(711.36,0)" d="M0,50v43" style="stroke: rgb(0, 0, 0); stroke-opacity: 0.1; stroke-width: 1px;"/><path class="xgrid crisp" transform="translate(861,0)" d="M0,50v43" style="stroke: rgb(0, 0, 0); stroke-opacity: 0.1; stroke-width: 1px;"/><path class="xgrid crisp" transform="translate(1010.63,0)" d="M0,50v43" style="stroke: rgb(0, 0, 0); stroke-opacity: 0.1; stroke-width: 1px;"/></g><g class="y"><path class="ygrid crisp" transform="translate(0,71.5)" d="M108,0h977" style="stroke: rgb(0, 0, 0); stroke-opacity: 0.1; stroke-width: 1px;"/></g></g><g class="zerolinelayer"><path class="xzl zl crisp" transform="translate(112.84,0)" d="M0,50v43" style="stroke: rgb(0, 0, 0); stroke-opacity: 0.1; stroke-width: 2px;"/></g><g class="layer-between"><g class="shapelayer"/><g class="imagelayer"/></g><path class="xlines-below"/><path class="ylines-below"/><g class="overlines-below"/><g class="xaxislayer-below"/><g class="yaxislayer-below"/><g class="overaxes-below"/><g class="overplot"><g class="xy" transform="translate(108,50)" clip-path="url(#clip482e7bxyplot)"><g class="violinlayer mlayer"><g class="trace violins" style="opacity: 0.5;"><path class="violin" d="M-1164.55,20.11Q-1033.34,19.42 -967.73,18.94C-902.13,18.46 -836.52,17.89 -770.92,17.25C-705.31,16.61 -639.71,15.86 -574.1,15.1C-508.49,14.34 -442.89,13.49 -377.28,12.7C-311.67,11.91 -246.07,11.09 -180.46,10.38C-114.85,9.67 -49.25,9 16.36,8.45C81.97,7.91 147.57,7.44 213.18,7.11C278.78,6.78 344.39,6.56 409.99,6.45C475.6,6.34 541.2,6.34 606.81,6.45C672.42,6.56 738.02,6.78 803.63,7.11C869.24,7.44 934.84,7.91 1000.45,8.45C1066.06,9 1131.66,9.67 1197.27,10.38C1262.88,11.09 1328.48,11.91 1394.09,12.7C1459.69,13.49 1525.3,14.34 1590.9,15.1C1656.51,15.86 1722.11,16.61 1787.72,17.25C1853.33,17.89 1918.93,18.46 1984.54,18.94Q2050.15,19.42 2181.36,20.11L2181.36,22.89Q2050.15,23.58 1984.54,24.06C1918.93,24.54 1853.33,25.11 1787.72,25.75C1722.11,26.39 1656.51,27.14 1590.9,27.9C1525.3,28.66 1459.69,29.51 1394.09,30.3C1328.48,31.09 1262.88,31.91 1197.27,32.62C1131.66,33.33 1066.06,34 1000.45,34.55C934.84,35.09 869.24,35.56 803.63,35.89C738.02,36.22 672.42,36.44 606.81,36.55C541.2,36.66 475.6,36.66 409.99,36.55C344.39,36.44 278.78,36.22 213.18,35.89C147.57,35.56 81.97,35.09 16.36,34.55C-49.25,34 -114.85,33.33 -180.46,32.62C-246.07,31.91 -311.67,31.09 -377.28,30.3C-442.89,29.51 -508.49,28.66 -574.1,27.9C-639.71,27.14 -705.31,26.39 -770.92,25.75C-836.52,25.11 -902.13,24.54 -967.73,24.06Q-1033.34,23.58 -1164.55,22.89Z" style="vector-effect: none; stroke-width: 2px; stroke: rgb(181, 181, 181); stroke-opacity: 1; fill: rgb(181, 181, 181); fill-opacity: 1;"/><path class="box" d="M508.4,25.26V17.74M44.67,25.26V17.74H972.14V25.26ZM44.67,21.5H44.67M972.14,21.5H972.14" style="vector-effect: non-scaling-stroke; stroke-width: 2px; stroke: rgb(181, 181, 181); stroke-opacity: 1; fill: rgb(181, 181, 181); fill-opacity: 1;"/><path class="mean" d="M508.4,25.26V17.74" style="fill: none; vector-effect: non-scaling-stroke; stroke-width: 2px; stroke-dasharray: 4px, 2px; stroke: rgb(181, 181, 181); stroke-opacity: 1;"/></g></g><g class="scatterlayer mlayer"><g class="trace scatter tracee20b7c" style="stroke-miterlimit: 2; opacity: 1;"><g class="fills"/><g class="errorbars"/><g class="lines"/><g class="points"><path class="point" transform="translate(972.14,21.5)" d="M2,0A2,2 0 1,1 0,-2A2,2 0 0,1 2,0Z" style="opacity: 1; stroke-width: 0px; fill: rgb(11, 121, 230); fill-opacity: 1;"/></g><g class="text"/></g><g class="trace scatter traceabfed9" style="stroke-miterlimit: 2; opacity: 1;"><g class="fills"/><g class="errorbars"/><g class="lines"/><g class="points"><path class="point" transform="translate(44.67,21.5)" d="M2,0A2,2 0 1,1 0,-2A2,2 0 0,1 2,0Z" style="opacity: 1; stroke-width: 0px; fill: rgb(11, 121, 230); fill-opacity: 1;"/></g><g class="text"/></g></g></g></g><path class="xlines-above crisp" d="M0,0" style="fill: none;"/><path class="ylines-above crisp" d="M0,0" style="fill: none;"/><g class="overlines-above"/><g class="xaxislayer-above"><g class="xtick"><text text-anchor="middle" x="0" y="103" transform="translate(112.84,0)" style="font-family: 'Lucida Grande', 'Open Sans', verdana, arial, sans-serif; font-size: 9px; fill: rgb(0, 0, 0); fill-opacity: 0.5; white-space: pre; opacity: 1;">0x</text></g><g class="xtick"><text text-anchor="middle" x="0" y="103" style="font-family: 'Lucida Grande', 'Open Sans', verdana, arial, sans-serif; font-size: 9px; fill: rgb(0, 0, 0); fill-opacity: 0.5; white-space: pre; opacity: 1;" transform="translate(262.47,0)">0.2x</text></g><g class="xtick"><text text-anchor="middle" x="0" y="103" style="font-family: 'Lucida Grande', 'Open Sans', verdana, arial, sans-serif; font-size: 9px; fill: rgb(0, 0, 0); fill-opacity: 0.5; white-space: pre; opacity: 1;" transform="translate(412.1,0)">0.4x</text></g><g class="xtick"><text text-anchor="middle" x="0" y="103" style="font-family: 'Lucida Grande', 'Open Sans', verdana, arial, sans-serif; font-size: 9px; fill: rgb(0, 0, 0); fill-opacity: 0.5; white-space: pre; opacity: 1;" transform="translate(561.73,0)">0.6x</text></g><g class="xtick"><text text-anchor="middle" x="0" y="103" style="font-family: 'Lucida Grande', 'Open Sans', verdana, arial, sans-serif; font-size: 9px; fill: rgb(0, 0, 0); fill-opacity: 0.5; white-space: pre; opacity: 1;" transform="translate(711.36,0)">0.8x</text></g><g class="xtick"><text text-anchor="middle" x="0" y="103" style="font-family: 'Lucida Grande', 'Open Sans', verdana, arial, sans-serif; font-size: 9px; fill: rgb(0, 0, 0); fill-opacity: 0.5; white-space: pre; opacity: 1;" transform="translate(861,0)">1x</text></g><g class="xtick"><text text-anchor="middle" x="0" y="103" style="font-family: 'Lucida Grande', 'Open Sans', verdana, arial, sans-serif; font-size: 9px; fill: rgb(0, 0, 0); fill-opacity: 0.5; white-space: pre; opacity: 1;" transform="translate(1010.63,0)">1.2x</text></g></g><g class="yaxislayer-above"><g class="ytick"><text text-anchor="end" x="107" y="3.15" transform="translate(0,71.5)translate(0,-5.8500000000000005)" style="font-family: 'Lucida Grande', 'Open Sans', verdana, arial, sans-serif; font-size: 9px; fill: rgb(0, 0, 0); fill-opacity: 0.5; white-space: pre; opacity: 1;"><tspan class="line" dy="0em" x="107" y="3.15">Samtools: coverage  </tspan><tspan class="line" dy="1.3em" x="107" y="3.15">Mean depth  </tspan></text></g></g><g class="overaxes-above"/></g></g><g class="polarlayer"/><g class="smithlayer"/><g class="ternarylayer"/><g class="geolayer"/><g class="funnelarealayer"/><g class="pielayer"/><g class="iciclelayer"/><g class="treemaplayer"/><g class="sunburstlayer"/><g class="glimages"/><defs id="topdefs-482e7b"><g class="clips"/></defs><g class="layer-above"><g class="imagelayer"/><g class="shapelayer"/></g><g class="infolayer"><g class="g-gtitle"><text class="gtitle" x="550" y="25" text-anchor="middle" dy="0em" style="opacity: 1; font-family: 'Lucida Grande', 'Open Sans', verdana, arial, sans-serif; font-size: 20px; fill: rgb(42, 63, 95); fill-opacity: 1; white-space: pre;"><tspan class="line" dy="0em" x="550" y="25">General Statistics</tspan><tspan class="line" dy="1.3em" x="550" y="25">​<tspan style="font-size:70%" dy="-0.6em">2 samples</tspan><tspan dy="0.42em">​</tspan></tspan></text></g><g class="g-xtitle"/><g class="g-ytitle"/></g></svg>